<?xml version="1.0" encoding="utf-8"?>
<!-- Generator: Adobe Illustrator 23.0.3, SVG Export Plug-In . SVG Version: 6.00 Build 0)  -->
<svg version="1.1" id="レイヤー_1" xmlns="http://www.w3.org/2000/svg" xmlns:xlink="http://www.w3.org/1999/xlink" x="0px"
	 y="0px" width="357.867px" height="58px" viewBox="0 0 357.867 58" style="enable-background:new 0 0 357.867 58;"
	 xml:space="preserve">
<style type="text/css">
	.st0{enable-background:new    ;}
	.st1{fill:#171C61;}
	.st2{fill:#999999;}
</style>
<g id="logo_new" transform="translate(-284.133 -61)">
	<g class="st0">
		<path class="st1" d="M415.85,71.376v2.118h-22.519v-2.118h9.889v-2.353h2.479v2.353H415.85z M414.963,90.309
			c0,1.229-0.261,1.908-1.148,2.301c-0.913,0.366-2.27,0.392-4.305,0.392c-0.104-0.68-0.443-1.622-0.757-2.249h-6.967v1.255h-2.113
			v-6.904h9.863v5.648c1.148,0.027,2.14,0.027,2.453-0.026c0.417,0,0.548-0.105,0.548-0.445v-6.616h-15.734v9.387h-2.374V81.627
			h20.535V90.309z M411.623,74.75v5.465h-14.038V74.75H411.623z M409.17,76.423h-9.237v2.118h9.237V76.423z M407.37,86.831h-5.584
			v2.223h5.584V86.831z"/>
		<path class="st1" d="M430.149,84.713v1.831h3.966v2.171h-3.966v4.34h-2.036v-4.34h-4.227v-2.171h4.227v-1.831h-3.418v-9.178h3.392
			v-1.7h-3.836v-2.118h3.836v-2.667h2.036v2.667h3.861v2.118h-3.861v1.7h3.575v0.209c2.401-1.622,4.775-4.341,5.897-6.616h2.166
			c1.592,2.536,4.097,5.125,6.445,6.484c-0.444,0.55-0.965,1.412-1.331,2.092c-0.574-0.392-1.174-0.862-1.748-1.386v1.857h-8.48
			v-1.883c-0.6,0.549-1.227,1.046-1.879,1.49c-0.235-0.523-0.678-1.255-1.07-1.752v8.682H430.149z M426.417,79.247h1.905v-1.961
			h-1.905V79.247z M426.417,82.935h1.905v-1.988h-1.905V82.935z M431.87,77.286h-1.905v1.961h1.905V77.286z M431.87,80.947h-1.905
			v1.988h1.905V80.947z M447.057,90.884c0,0.889-0.131,1.438-0.652,1.778c-0.574,0.34-1.279,0.366-2.27,0.366
			c-0.078-0.549-0.366-1.386-0.626-1.909c0.574,0.027,1.07,0.027,1.253,0.027c0.183-0.027,0.235-0.079,0.235-0.314v-3.635h-1.774
			v5.492h-1.54v-5.492h-1.722v5.492h-1.566v-5.492h-1.67v5.858h-1.879V80.032h12.212V90.884z M438.394,85.158v-3.086h-1.67v3.086
			H438.394z M444.917,76.136c-1.618-1.464-3.131-3.242-4.148-4.785c-0.913,1.516-2.323,3.294-3.94,4.785H444.917z M441.682,85.158
			v-3.086h-1.722v3.086H441.682z M444.996,85.158v-3.086h-1.774v3.086H444.996z"/>
		<path class="st1" d="M477.741,73.625v12.5h-2.531v-1.412h-6.784v8.316h-2.531v-8.316h-6.758v1.543h-2.427v-12.63h9.185v-4.55
			h2.531v4.55H477.741z M465.895,82.333v-6.328h-6.758v6.328H465.895z M475.21,82.333v-6.328h-6.784v6.328H475.21z"/>
		<path class="st1" d="M510.07,85.941h-10.281v4.368c0,1.334-0.339,2.013-1.409,2.38c-1.07,0.34-2.609,0.365-4.88,0.365
			c-0.182-0.68-0.652-1.674-1.017-2.353c1.827,0.079,3.653,0.079,4.175,0.052c0.521-0.026,0.652-0.131,0.652-0.523v-4.289h-10.176
			v-2.248h10.176v-1.805h1.227c1.017-0.549,2.061-1.255,2.948-1.96h-9.915v-2.118h12.238l0.522-0.131l1.565,1.177
			c-1.565,1.674-3.861,3.347-6.106,4.498v0.34h10.281V85.941z M489.848,79.273h-2.271v-5.988h3.757
			c-0.469-0.942-1.278-2.118-2.035-3.007l2.087-0.942c0.939,1.047,1.983,2.51,2.427,3.504l-0.94,0.445h4.828
			c-0.366-1.046-1.122-2.484-1.827-3.583l2.114-0.785c0.887,1.178,1.774,2.825,2.113,3.871l-1.278,0.497h4.409
			c0.913-1.203,1.932-2.85,2.531-4.08l2.557,0.811c-0.757,1.125-1.618,2.275-2.427,3.269h3.784v5.988h-2.401v-3.844h-17.43V79.273z"
			/>
		<path class="st1" d="M541.094,71.376v2.118h-22.519v-2.118h9.89v-2.353h2.479v2.353H541.094z M540.206,90.309
			c0,1.229-0.261,1.908-1.148,2.301c-0.913,0.366-2.27,0.392-4.305,0.392c-0.105-0.68-0.444-1.622-0.757-2.249h-6.967v1.255h-2.114
			v-6.904h9.863v5.648c1.149,0.027,2.14,0.027,2.453-0.026c0.417,0,0.548-0.105,0.548-0.445v-6.616h-15.734v9.387h-2.374V81.627
			h20.535V90.309z M536.866,74.75v5.465h-14.038V74.75H536.866z M534.414,76.423h-9.238v2.118h9.238V76.423z M532.613,86.831h-5.584
			v2.223h5.584V86.831z"/>
		<path class="st1" d="M567.577,82.725v1.961h4.644v2.092h-4.644v3.609c0,1.281-0.313,1.935-1.279,2.275
			c-0.965,0.366-2.4,0.392-4.461,0.392c-0.131-0.68-0.549-1.674-0.888-2.275c1.566,0.052,3.106,0.052,3.549,0.027
			c0.47-0.027,0.574-0.105,0.574-0.471v-3.556h-8.95c1.461,1.02,3.078,2.433,3.836,3.531l-1.879,1.543
			c-0.783-1.203-2.583-2.851-4.149-4.001l1.409-1.073h-5.036v-2.092h14.769v-1.961h-15.63v-2.065h10.437v-1.987h-7.854v-2.013h7.854
			V75.09h0.626c-0.366-0.261-0.731-0.497-1.018-0.654c0.47-0.392,0.913-0.81,1.305-1.307h-4.253c0.339,0.733,0.678,1.491,0.835,2.04
			l-2.087,0.81c-0.209-0.732-0.679-1.883-1.149-2.85h-0.73c-0.757,1.177-1.618,2.276-2.453,3.112
			c-0.444-0.393-1.435-1.073-2.009-1.387c1.644-1.438,3.157-3.713,4.018-5.936l2.323,0.602c-0.209,0.549-0.47,1.072-0.731,1.595
			h6.314v1.935c0.992-1.203,1.853-2.641,2.349-4.132l2.348,0.55c-0.209,0.575-0.444,1.098-0.705,1.647h7.88v2.013h-4.984
			c0.496,0.733,0.966,1.464,1.227,2.065l-2.087,0.863c-0.314-0.758-1.044-1.961-1.748-2.929h-1.435
			c-0.47,0.733-0.966,1.36-1.488,1.961h0.157v1.569h8.141v2.013h-8.141v1.987h10.568v2.065H567.577z"/>
		<path class="st1" d="M604.003,85.941h-10.282v4.368c0,1.334-0.339,2.013-1.408,2.38c-1.07,0.34-2.61,0.365-4.88,0.365
			c-0.183-0.68-0.653-1.674-1.018-2.353c1.827,0.079,3.654,0.079,4.175,0.052c0.522-0.026,0.653-0.131,0.653-0.523v-4.289h-10.177
			v-2.248h10.177v-1.805h1.226c1.018-0.549,2.062-1.255,2.949-1.96h-9.916v-2.118h12.239l0.521-0.131l1.566,1.177
			c-1.566,1.674-3.862,3.347-6.107,4.498v0.34h10.282V85.941z M583.78,79.273h-2.27v-5.988h3.757
			c-0.469-0.942-1.279-2.118-2.036-3.007l2.087-0.942c0.94,1.047,1.984,2.51,2.427,3.504l-0.939,0.445h4.827
			c-0.365-1.046-1.122-2.484-1.826-3.583l2.113-0.785c0.887,1.178,1.775,2.825,2.114,3.871l-1.279,0.497h4.41
			c0.913-1.203,1.931-2.85,2.53-4.08l2.558,0.811c-0.757,1.125-1.618,2.275-2.427,3.269h3.783v5.988h-2.4v-3.844H583.78V79.273z"/>
		<path class="st1" d="M619.944,85.052c-0.391-0.862-1.201-2.353-1.957-3.635v11.611h-2.27v-11.14
			c-0.835,2.537-1.853,4.89-2.949,6.433c-0.235-0.68-0.783-1.621-1.174-2.171c1.592-2.171,3.131-6.04,3.914-9.387h-3.366v-2.249
			h3.575v-5.465h2.27v5.465h3.001v2.249h-3.001v1.674c0.731,0.941,2.844,4.08,3.314,4.812L619.944,85.052z M632.808,80.686
			c-0.705,2.275-1.696,4.367-3.026,6.197c1.695,1.804,3.783,3.217,6.209,4.079c-0.548,0.471-1.331,1.491-1.695,2.145
			c-2.375-0.994-4.384-2.485-6.08-4.341c-1.8,1.831-4.018,3.321-6.81,4.367c-0.261-0.549-0.861-1.464-1.253-1.935
			c2.74-0.967,4.932-2.458,6.602-4.263c-1.279-1.778-2.296-3.792-3.079-5.988l2.087-0.601c0.601,1.674,1.436,3.269,2.479,4.681
			c0.965-1.465,1.67-3.112,2.113-4.838L632.808,80.686z M626.676,76.475c-1.096,2.171-2.739,4.393-4.462,5.884
			c-0.365-0.471-1.148-1.177-1.644-1.543c1.565-1.307,3.079-3.426,3.914-5.256L626.676,76.475z M635.495,75.011h-14.247v-2.249
			h5.845v-3.713h2.427v3.713h5.975V75.011z M631.738,75.481c1.618,1.648,3.418,3.923,4.201,5.492l-2.036,1.177
			c-0.705-1.543-2.452-3.896-4.045-5.623L631.738,75.481z"/>
	</g>
	<g class="st0">
		<path class="st2" d="M394.35,107.878h-2.451v-0.863h5.929v0.863h-2.451v7.247h-1.027V107.878z"/>
		<path class="st2" d="M403.204,112.647h-2.959l-0.784,2.479h-1.038l2.749-8.111h1.137l2.749,8.111h-1.082L403.204,112.647z
			 M402.95,111.829l-0.386-1.239c-0.298-0.918-0.552-1.803-0.817-2.744h-0.044c-0.254,0.952-0.519,1.826-0.806,2.744l-0.398,1.239
			H402.95z"/>
		<path class="st2" d="M406.913,107.015h1.027v4.072h0.033l3.379-4.072h1.148l-2.528,3.087l2.926,5.024h-1.148l-2.418-4.226
			l-1.391,1.659v2.567h-1.027V107.015z"/>
		<path class="st2" d="M418.35,112.647h-2.959l-0.784,2.479h-1.038l2.749-8.111h1.137l2.749,8.111h-1.082L418.35,112.647z
			 M418.096,111.829l-0.386-1.239c-0.298-0.918-0.552-1.803-0.817-2.744h-0.044c-0.254,0.952-0.519,1.826-0.806,2.744l-0.398,1.239
			H418.096z"/>
		<path class="st2" d="M422.058,107.015h1.06l2.948,5.112l0.861,1.671h0.055c-0.055-0.819-0.132-1.726-0.132-2.567v-4.215h0.971
			v8.111h-1.049l-2.948-5.123l-0.872-1.671h-0.044c0.044,0.819,0.122,1.681,0.122,2.534v4.26h-0.972V107.015z"/>
		<path class="st2" d="M434.456,112.647h-2.959l-0.784,2.479h-1.038l2.749-8.111h1.137l2.749,8.111h-1.082L434.456,112.647z
			 M434.201,111.829l-0.386-1.239c-0.298-0.918-0.552-1.803-0.817-2.744h-0.044c-0.254,0.952-0.519,1.826-0.806,2.744l-0.398,1.239
			H434.201z"/>
		<path class="st2" d="M437.336,107.015h1.06l0.85,4.415c0.155,0.874,0.32,1.748,0.475,2.622h0.044
			c0.188-0.874,0.387-1.748,0.585-2.622l1.115-4.415h0.928l1.137,4.415c0.199,0.863,0.387,1.737,0.574,2.622h0.055
			c0.154-0.885,0.309-1.759,0.464-2.622l0.85-4.415h0.982l-1.678,8.111h-1.226l-1.226-4.89c-0.144-0.642-0.265-1.229-0.397-1.848
			h-0.044c-0.132,0.62-0.276,1.206-0.409,1.848l-1.203,4.89h-1.215L437.336,107.015z"/>
		<path class="st2" d="M452.284,112.647h-2.959l-0.784,2.479h-1.038l2.749-8.111h1.137l2.749,8.111h-1.082L452.284,112.647z
			 M452.03,111.829l-0.386-1.239c-0.298-0.918-0.552-1.803-0.817-2.744h-0.045c-0.254,0.952-0.519,1.826-0.806,2.744l-0.398,1.239
			H452.03z"/>
		<path class="st2" d="M458.465,113.986l0.729-0.521c0.364,0.642,0.817,0.908,1.402,0.908c0.872,0,1.303-0.498,1.303-1.727v-5.632
			h1.016v5.732c0,1.394-0.64,2.522-2.219,2.522C459.669,115.269,458.939,114.827,458.465,113.986z"/>
		<path class="st2" d="M465.784,111.774v-4.758h1.026v4.791c0,1.958,0.828,2.567,1.877,2.567c1.082,0,1.933-0.609,1.933-2.567
			v-4.791h0.983v4.758c0,2.611-1.259,3.495-2.916,3.495C467.042,115.269,465.784,114.384,465.784,111.774z"/>
		<path class="st2" d="M474.494,107.015h1.059l2.948,5.112l0.861,1.671h0.055c-0.055-0.819-0.132-1.726-0.132-2.567v-4.215h0.971
			v8.111h-1.049l-2.948-5.123l-0.872-1.671h-0.044c0.044,0.819,0.122,1.681,0.122,2.534v4.26h-0.971V107.015z"/>
		<path class="st2" d="M483.181,107.015h1.027v8.111h-1.027V107.015z"/>
		<path class="st2" d="M486.669,111.043c0-2.6,1.424-4.182,3.456-4.182s3.456,1.582,3.456,4.182s-1.424,4.226-3.456,4.226
			S486.669,113.643,486.669,111.043z M492.532,111.043c0-2.036-0.96-3.286-2.407-3.286c-1.457,0-2.407,1.25-2.407,3.286
			c0,2.025,0.95,3.33,2.407,3.33C491.572,114.373,492.532,113.068,492.532,111.043z"/>
		<path class="st2" d="M500.491,115.126l-1.965-3.441h-1.457v3.441h-1.027v-8.111h2.539c1.645,0,2.826,0.586,2.826,2.28
			c0,1.261-0.729,2.013-1.833,2.28l2.076,3.551H500.491z M497.069,110.854h1.357c1.27,0,1.965-0.509,1.965-1.56
			c0-1.073-0.695-1.45-1.965-1.45h-1.357V110.854z"/>
		<path class="st2" d="M509.289,106.351h0.728l-3.301,10.755h-0.74L509.289,106.351z"/>
		<path class="st2" d="M514.609,114.063l0.607-0.696c0.585,0.608,1.402,1.007,2.241,1.007c1.06,0,1.7-0.531,1.7-1.328
			c0-0.83-0.585-1.095-1.347-1.438l-1.17-0.51c-0.751-0.32-1.645-0.896-1.645-2.08c0-1.25,1.082-2.157,2.55-2.157
			c0.961,0,1.811,0.409,2.385,1.007l-0.541,0.652c-0.497-0.465-1.094-0.763-1.844-0.763c-0.916,0-1.512,0.465-1.512,1.195
			c0,0.786,0.707,1.084,1.336,1.349l1.159,0.498c0.939,0.41,1.667,0.963,1.667,2.169c0,1.284-1.059,2.301-2.749,2.301
			C516.298,115.269,515.316,114.805,514.609,114.063z"/>
		<path class="st2" d="M522.501,107.015h4.671v0.863h-3.644v2.545h3.069v0.874h-3.069v2.954h3.765v0.874h-4.792V107.015z"/>
		<path class="st2" d="M529.711,107.015h1.059l2.948,5.112l0.861,1.671h0.055c-0.055-0.819-0.132-1.726-0.132-2.567v-4.215h0.971
			v8.111h-1.049l-2.948-5.123l-0.872-1.671h-0.044c0.044,0.819,0.122,1.681,0.122,2.534v4.26h-0.971V107.015z"/>
		<path class="st2" d="M538.398,107.015h1.027v8.111h-1.027V107.015z"/>
		<path class="st2" d="M541.887,111.043c0-2.6,1.424-4.182,3.456-4.182s3.456,1.582,3.456,4.182s-1.424,4.226-3.456,4.226
			S541.887,113.643,541.887,111.043z M547.749,111.043c0-2.036-0.96-3.286-2.407-3.286c-1.457,0-2.407,1.25-2.407,3.286
			c0,2.025,0.95,3.33,2.407,3.33C546.789,114.373,547.749,113.068,547.749,111.043z"/>
		<path class="st2" d="M555.708,115.126l-1.965-3.441h-1.457v3.441h-1.027v-8.111h2.539c1.644,0,2.826,0.586,2.826,2.28
			c0,1.261-0.729,2.013-1.833,2.28l2.076,3.551H555.708z M552.286,110.854h1.357c1.27,0,1.965-0.509,1.965-1.56
			c0-1.073-0.695-1.45-1.965-1.45h-1.357V110.854z"/>
		<path class="st2" d="M562.176,107.015h1.027v3.397h3.775v-3.397h1.016v8.111h-1.016v-3.828h-3.775v3.828h-1.027V107.015z"/>
		<path class="st2" d="M570.93,107.015h1.027v8.111h-1.027V107.015z"/>
		<path class="st2" d="M574.419,111.076c0-2.622,1.567-4.215,3.709-4.215c1.126,0,1.866,0.509,2.33,1.007l-0.552,0.664
			c-0.409-0.432-0.928-0.775-1.756-0.775c-1.623,0-2.682,1.261-2.682,3.286c0,2.047,0.96,3.33,2.694,3.33
			c0.585,0,1.148-0.177,1.468-0.475v-2.124h-1.711v-0.853h2.65v3.408c-0.519,0.542-1.413,0.94-2.507,0.94
			C575.931,115.269,574.419,113.709,574.419,111.076z"/>
		<path class="st2" d="M583.206,107.015h1.027v3.397h3.775v-3.397h1.016v8.111h-1.016v-3.828h-3.775v3.828h-1.027V107.015z"/>
		<path class="st2" d="M594.564,114.063l0.608-0.696c0.585,0.608,1.402,1.007,2.241,1.007c1.059,0,1.7-0.531,1.7-1.328
			c0-0.83-0.585-1.095-1.348-1.438l-1.17-0.51c-0.751-0.32-1.644-0.896-1.644-2.08c0-1.25,1.082-2.157,2.55-2.157
			c0.96,0,1.81,0.409,2.384,1.007l-0.541,0.652c-0.497-0.465-1.093-0.763-1.843-0.763c-0.916,0-1.512,0.465-1.512,1.195
			c0,0.786,0.707,1.084,1.336,1.349l1.159,0.498c0.938,0.41,1.667,0.963,1.667,2.169c0,1.284-1.06,2.301-2.749,2.301
			C596.254,115.269,595.271,114.805,594.564,114.063z"/>
		<path class="st2" d="M601.994,111.076c0-2.622,1.535-4.215,3.588-4.215c0.983,0,1.755,0.486,2.219,1.007l-0.552,0.664
			c-0.419-0.454-0.96-0.775-1.656-0.775c-1.535,0-2.55,1.261-2.55,3.286c0,2.047,0.971,3.33,2.517,3.33
			c0.773,0,1.358-0.343,1.878-0.908l0.563,0.642c-0.64,0.741-1.435,1.161-2.484,1.161
			C603.506,115.269,601.994,113.709,601.994,111.076z"/>
		<path class="st2" d="M610.217,107.015h1.027v3.397h3.776v-3.397h1.015v8.111h-1.015v-3.828h-3.776v3.828h-1.027V107.015z"/>
		<path class="st2" d="M618.507,111.043c0-2.6,1.424-4.182,3.456-4.182s3.456,1.582,3.456,4.182s-1.424,4.226-3.456,4.226
			S618.507,113.643,618.507,111.043z M624.37,111.043c0-2.036-0.96-3.286-2.407-3.286c-1.457,0-2.407,1.25-2.407,3.286
			c0,2.025,0.95,3.33,2.407,3.33C623.41,114.373,624.37,113.068,624.37,111.043z"/>
		<path class="st2" d="M627.416,111.043c0-2.6,1.424-4.182,3.456-4.182s3.456,1.582,3.456,4.182s-1.424,4.226-3.456,4.226
			S627.416,113.643,627.416,111.043z M633.279,111.043c0-2.036-0.96-3.286-2.407-3.286c-1.457,0-2.407,1.25-2.407,3.286
			c0,2.025,0.95,3.33,2.407,3.33C632.318,114.373,633.279,113.068,633.279,111.043z"/>
		<path class="st2" d="M636.788,107.015h1.027v7.236h3.533v0.874h-4.56V107.015z"/>
	</g>
</g>
<polygon class="st1" points="1.086,37.627 31.641,8.048 46.38,22.316 61.598,7.584 91.794,36.815 76.936,51.198 62.676,37.395 
	46.62,52.938 30.443,37.279 15.585,51.662 "/>
</svg>
